#!OML:ASF F:\VICON\USERDATA\INSTALL\rory3\rory3.ASF
:FULLY-SPECIFIED
:DEGREES
1858
root 5.54344 17.4793 1.24124 19.6608 1.91755 1.04659
lowerback -9.7871 -1.6156 9.62948
upperback -13.5642 -2.49432 0.72182
thorax -9.61749 -2.1572 -4.5938
lowerneck -3.25797 19.6008 11.0939
upperneck 9.77795 25.6909 -0.331873
head 4.8728 13.0253 -0.0441954
rclavicle 1.13307e-014 1.74931e-014
rhumerus -8.91258 -28.4346 27.4094
rradius 114.075
rwrist -61.1978
rhand -3.20182 -41.1604
rfingers 7.12502
rthumb 22.5203 -69.8671
lclavicle 1.13307e-014 1.74931e-014
lhumerus 24.8142 27.7045 -12.6503
lradius 32.312
lwrist 54.8407
lhand -19.8599 -12.492
lfingers 7.12502
lthumb 6.4751 17.389
rfemur -14.3746 10.0999 -9.32366
rtibia 14.0131
rfoot -10.6733 -23.329
rtoes 35.1873
lfemur -19.0198 3.41789 -30.9886
ltibia 15.7343
lfoot -15.2341 1.45143
ltoes 9.1675
1859
root 5.53943 17.479 1.23884 19.6918 1.91985 1.07152
lowerback -9.80188 -1.62918 9.60307
upperback -13.5133 -2.51664 0.713774
thorax -9.55039 -2.16183 -4.5906
lowerneck -3.781 19.6308 11.0478
upperneck 10.1035 25.6625 -0.201974
head 5.03245 13.0119 0.0667512
rclavicle -5.60573e-014 1.03368e-014
rhumerus -8.9711 -28.4666 27.379
rradius 114.059
rwrist -61.0308
rhand -3.44756 -41.0814
rfingers 7.12502
rthumb 22.2844 -69.8165
lclavicle -5.60573e-014 1.03368e-014
lhumerus 24.7744 27.8502 -12.6694
lradius 32.3278
lwrist 54.8372
lhand -20.0272 -12.7633
lfingers 7.12502
lthumb 6.31359 17.1226
rfemur -14.4893 10.093 -9.34732
rtibia 14.1505
rfoot -10.5074 -23.3358
rtoes 34.7454
lfemur -18.9927 3.43652 -31.0012
ltibia 15.5947
lfoot -15.1259 1.3972
ltoes 9.23065
1860
root 5.53643 17.4797 1.23268 19.683 1.88345 1.22939
lowerback -9.69977 -1.66097 9.43518
upperback -13.5506 -2.54278 0.67517
thorax -9.64345 -2.16626 -4.53407
lowerneck -4.01693 19.6252 11.0971
upperneck 10.4459 25.6205 -0.115738
head 5.17069 12.9977 0.128254
rclavicle -3.63776e-014 7.15625e-015
rhumerus -8.96458 -28.3942 27.3786
rradius 114.101
rwrist -61.0668
rhand -3.99345 -41.4188
rfingers 7.12502
rthumb 21.7603 -70.2157
lclavicle -3.63776e-014 7.15625e-015
lhumerus 24.8247 27.9554 -12.5844
lradius 32.3075
lwrist 54.7231
lhand -19.8901 -12.6162
lfingers 7.12502
lthumb 6.44589 17.2657
rfemur -14.5469 10.0392 -9.51864
rtibia 14.2618
rfoot -9.92103 -23.4603
rtoes 33.6728
lfemur -18.9147 3.4085 -31.1663
ltibia 15.458
lfoot -15.013 1.42278
ltoes 9.28972
1861
root 5.53562 17.4798 1.23057 19.6262 1.83142 1.35012
lowerback -9.66271 -1.65246 9.34277
upperback -13.5603 -2.52721 0.618654
thorax -9.66836 -2.1546 -4.54268
lowerneck -4.23574 19.6338 11.0415
upperneck 10.806 25.5947 0.084402
head 5.28493 12.9953 0.228814
rclavicle 2.5842e-015 3.33958e-014
rhumerus -9.07223 -28.2464 27.5227
rradius 114.253
rwrist -61.4739
rhand -4.51449 -41.6623
rfingers 7.12502
rthumb 21.2598 -70.5163
lclavicle 2.5842e-015 3.33958e-014
lhumerus 24.9586 28.0436 -12.459
lradius 32.2713
lwrist 54.6901
lhand -19.7102 -12.3895
lfingers 7.12502
lthumb 6.6196 17.487
rfemur -14.5127 9.94839 -9.6417
rtibia 14.3075
rfoot -9.29406 -23.582
rtoes 32.6442
lfemur -18.7845 3.40174 -31.3002
ltibia 15.3545
lfoot -15.0119 1.43272
ltoes 9.27916
1862
root 5.5351 17.478 1.23212 19.6211 1.82494 1.33943
lowerback -9.81736 -1.6359 9.38778
upperback -13.4363 -2.53082 0.59948
thorax -9.43939 -2.14874 -4.59977
lowerneck -4.9953 19.7165 10.8179
upperneck 11.3558 25.5972 0.463405
head 5.50064 13.0047 0.462566
rclavicle -1.19271e-015 -5.56597e-015
rhumerus -9.25655 -28.3115 27.628
rradius 114.344
rwrist -61.7494
rhand -4.61862 -41.5685
rfingers 7.12502
rthumb 21.1598 -70.4338
lclavicle -1.19271e-015 -5.56597e-015
lhumerus 25.116 28.4198 -12.2608
lradius 32.1708
lwrist 54.4879
lhand -19.6645 -12.2216
lfingers 7.12502
lthumb 6.66369 17.6536
rfemur -14.4936 9.89093 -9.63033
rtibia 14.2528
rfoot -9.41178 -23.5626
rtoes 33.0872
lfemur -18.7222 3.41564 -31.2866
ltibia 15.2922
lfoot -15.074 1.39752
ltoes 9.2792
1863
root 5.53523 17.477 1.23468 19.5379 1.76114 1.2706
lowerback -9.85447 -1.61335 9.49021
upperback -13.3258 -2.51443 0.601013
thorax -9.29502 -2.14053 -4.66052
lowerneck -5.42805 19.7873 10.6912
upperneck 11.6321 25.6296 0.680467
head 5.61315 13.025 0.597156
rclavicle -4.21423e-014 8.74653e-015
rhumerus -9.27138 -28.4713 27.5448
rradius 114.246
rwrist -61.5271
rhand -4.26792 -41.4028
rfingers 7.12502
rthumb 21.4967 -70.2299
lclavicle -4.21423e-014 8.74653e-015
lhumerus 25.0163 28.3801 -12.394
lradius 32.1904
lwrist 54.6526
lhand -19.6022 -12.0894
lfingers 7.12502
lthumb 6.72389 17.7838
rfemur -14.4352 10.0358 -9.59319
rtibia 14.1362
rfoot -9.31479 -23.6788
rtoes 32.9482
lfemur -18.5963 3.46679 -31.217
ltibia 15.2677
lfoot -15.0933 1.44703
ltoes 9.29013
